<?xml version="1.0" standalone="no"?>
<!DOCTYPE svg PUBLIC "-//W3C//DTD SVG 20010904//EN"
 "http://www.w3.org/TR/2001/REC-SVG-20010904/DTD/svg10.dtd">
<svg version="1.0" xmlns="http://www.w3.org/2000/svg"
 width="16.000000pt" height="16.000000pt" viewBox="0 0 16.000000 16.000000"
 preserveAspectRatio="xMidYMid meet">
<metadata>
Created by potrace 1.11, written by Peter Selinger 2001-2013
</metadata>
<g transform="translate(0.000000,16.000000) scale(0.002286,-0.002286)"
fill="#000000" stroke="none">
<path d="M609 6996 c-2 -2 -17 -6 -34 -9 -171 -27 -342 -136 -447 -285 -34
-50 -94 -174 -103 -218 -4 -16 -11 -52 -16 -81 -5 -32 -8 -1207 -7 -2945 3
-2453 5 -2898 17 -2928 8 -19 23 -60 34 -90 40 -110 145 -243 242 -310 94 -64
176 -98 290 -120 31 -6 1134 -9 2925 -9 2867 -1 2875 0 2955 20 213 55 376
189 469 389 71 154 66 -103 63 3120 l-2 2905 -23 65 c-90 252 -241 396 -507
482 -32 10 -602 13 -2946 15 -1598 2 -2907 1 -2910 -1z m1266 -1646 c3 -5 -15
-31 -41 -57 -26 -27 -56 -68 -67 -93 -27 -60 -33 -167 -14 -255 13 -60 187
-516 714 -1868 64 -164 120 -294 124 -290 4 4 26 53 49 108 24 55 55 127 70
160 15 33 47 105 70 160 23 55 55 127 70 160 15 33 62 141 105 240 83 192 103
239 141 322 13 29 53 121 90 205 36 84 74 171 84 193 10 22 48 110 85 195 37
85 75 173 85 195 10 22 51 115 90 205 39 91 80 185 91 210 11 25 37 83 58 129
20 47 41 86 47 88 5 2 63 -128 128 -289 270 -666 336 -830 391 -963 31 -77
100 -246 152 -375 52 -129 101 -248 108 -265 23 -54 145 -356 145 -360 0 -2
11 -28 23 -57 13 -29 43 -101 67 -161 24 -59 47 -104 50 -100 4 5 84 204 179
443 95 239 179 449 186 465 7 17 79 197 160 400 81 204 152 384 159 400 7 17
25 62 40 100 15 39 34 84 41 100 45 104 66 194 71 301 5 132 -37 242 -112 294
-31 21 -45 48 -26 51 4 1 173 2 376 3 312 1 369 -1 374 -13 3 -9 -8 -25 -28
-40 -109 -83 -213 -241 -315 -481 -15 -36 -33 -78 -40 -95 -8 -16 -63 -156
-124 -310 -61 -154 -116 -289 -121 -300 -5 -11 -21 -51 -36 -90 -14 -38 -32
-83 -39 -100 -8 -16 -26 -61 -41 -100 -14 -38 -32 -83 -40 -100 -7 -16 -90
-223 -184 -460 -94 -236 -175 -439 -180 -450 -5 -11 -112 -278 -237 -592 -182
-456 -232 -573 -246 -573 -10 0 -20 8 -24 18 -7 19 -167 409 -188 457 -7 17
-61 147 -120 290 -59 143 -113 274 -120 290 -7 17 -18 43 -24 60 -29 70 -394
953 -406 980 -7 17 -20 50 -30 75 -10 25 -26 63 -36 85 -9 22 -33 81 -53 130
-20 50 -41 99 -45 110 -37 84 -53 117 -56 114 -2 -2 -99 -231 -215 -509 -116
-278 -218 -518 -225 -535 -14 -30 -229 -544 -270 -645 -48 -117 -167 -396
-181 -424 -8 -16 -14 -33 -14 -38 0 -5 -11 -33 -24 -61 -13 -29 -51 -117 -84
-197 -82 -198 -83 -200 -101 -200 -17 0 -24 18 -351 830 -83 206 -155 384
-160 395 -5 11 -35 83 -66 160 -31 77 -84 210 -119 295 -35 85 -111 274 -170
420 -397 981 -501 1236 -541 1317 -52 104 -120 193 -181 238 -23 16 -42 38
-42 48 -1 16 32 17 553 17 356 0 557 -4 561 -10z"/>
</g>
</svg>
